<?xml version="1.0" standalone="no"?>
<!DOCTYPE svg PUBLIC "-//W3C//DTD SVG 20010904//EN"
 "http://www.w3.org/TR/2001/REC-SVG-20010904/DTD/svg10.dtd">
<svg version="1.0" xmlns="http://www.w3.org/2000/svg"
 width="32.000000pt" height="32.000000pt" viewBox="0 0 32.000000 32.000000"
 preserveAspectRatio="xMidYMid meet">

<g transform="translate(0.000000,32.000000) scale(0.100000,-0.100000)"
fill="#000000" stroke="none">
<path d="M50 160 l0 -110 110 0 110 0 0 110 0 110 -110 0 -110 0 0 -110z m200
0 l0 -90 -90 0 -90 0 0 90 0 90 90 0 90 0 0 -90z"/>
<path d="M110 160 l0 -60 44 0 c52 0 73 18 56 50 -6 11 -8 25 -5 31 12 19 -17
39 -56 39 l-39 0 0 -60z m71 25 c0 -5 -12 -11 -26 -13 -18 -2 -25 1 -25 13 0
12 7 15 25 13 14 -2 26 -7 26 -13z m14 -50 c0 -5 -15 -11 -32 -13 -25 -3 -33
1 -33 13 0 12 8 16 33 13 17 -2 32 -7 32 -13z"/>
</g>
</svg>
